<svg xmlns="http://www.w3.org/2000/svg" fill="none" viewBox="0 0 52 52"><path fill="#000" d="M22.24 11.063c-5.698 1.576-10.11 6.182-11.25 11.806-.484 2.352-.484 3.855 0 6.206 1.14 5.649 5.6 10.303 11.298 11.83 1.697.437 5.77.437 7.588-.024 5.333-1.357 9.794-5.818 11.151-11.151.46-1.843.46-5.673 0-7.515-1.212-4.8-4.776-8.752-9.551-10.618-1.625-.63-2.206-.728-4.873-.8-2.182-.073-3.394 0-4.364.266m7.296 2.934c4.024 1.188 7.249 4.363 8.46 8.29.583 1.843.655 5.14.146 6.958-.485 1.842-1.139 3.03-1.648 3.03-.582 0-.558-.266.17-1.697.339-.654.727-1.988.848-2.933a11.466 11.466 0 0 0-11.515-13.14c-10.497.122-15.442 12.776-7.782 19.88 3.37 3.127 7.879 3.951 12.364 2.23 2.279-.849 3.175-.485 1.188.485-1.819.897-3.394 1.236-5.77 1.236-2.764 0-4.776-.606-7.03-2.133-5.382-3.685-6.982-10.982-3.661-16.655.727-1.236 2.91-3.37 4.34-4.267 2.545-1.575 6.933-2.157 9.89-1.284m-4.872 2.86c.46.17 1.042.412 1.284.51.291.12.412.072.412-.219 0-.29.243-.388.97-.388h.97v5.091h-.97c-.703 0-.97-.097-.97-.363 0-.8-.775-2.23-1.43-2.619-.388-.218-1.212-.412-1.842-.412-.946 0-1.26.121-1.818.727-.776.849-.97 1.6-.97 4.073 0 3.37.8 4.655 2.885 4.655.63 0 1.26-.121 1.43-.291s.291-.921.291-1.697v-1.406h-.848c-.8 0-.849-.049-.849-.849v-.872l3.467.072 3.442.073v.727c0 .606-.121.752-.727.849l-.727.121-.025 2.86c-.024 1.673.049 2.837.194 2.837.315 0 2.376-1.697 2.376-1.964 0-.12-.267-.218-.606-.218-.533 0-.606-.097-.606-.848v-.873l2.74.073 2.714.072v.703c0 .582-.12.752-.678.897-.388.097-1.067.461-1.503.8l-.825.63 1.14 1.989c.8 1.357 1.333 2.036 1.818 2.23s.654.412.654.921v.679h-5.575v-.703c0-.51.145-.727.509-.824.46-.122.46-.17.121-.825a12 12 0 0 0-.703-1.139c-.315-.436-.364-.436-1.14.267-.605.557-.75.824-.63 1.236.097.29.34.533.534.533.218 0 .339.267.339.728v.727h-5.333v-.703c0-.558.12-.727.557-.8.51-.073.534-.194.606-2.327l.073-2.255-.679.194c-.363.097-1.551.194-2.618.194-2.86-.024-4.412-.945-5.43-3.273-.873-2.036-.8-4.8.242-6.836.534-1.067 2.012-2.352 3.152-2.764 1.09-.412 3.54-.388 4.582 0"/></svg>