<svg xmlns="http://www.w3.org/2000/svg" fill="none" viewBox="-3 -3 24 24"><path fill="#fec328" d="M16.542 1.458a4.98 4.98 0 0 0-7.04 0L6.99 3.972a.711.711 0 1 0 1.005 1.006l2.514-2.514a3.555 3.555 0 0 1 5.029 5.028l-2.514 2.514a.711.711 0 1 0 1.005 1.005l2.514-2.514a4.977 4.977 0 0 0 0-7.04M4.978 7.994A.711.711 0 0 0 3.972 6.99L1.458 9.503a4.978 4.978 0 1 0 7.04 7.04l2.513-2.515a.711.711 0 1 0-1.005-1.005l-2.514 2.514a3.555 3.555 0 1 1-5.028-5.029z"/><path fill="#fec328" d="M12.017 6.989a.711.711 0 1 0-1.006-1.006l-5.028 5.028a.711.711 0 1 0 1.006 1.006z"/></svg>