<svg xmlns="http://www.w3.org/2000/svg" fill="none" viewBox="0 0 20 22"><g stroke="#fec328" stroke-linecap="round" stroke-linejoin="round" stroke-width="1.667" clip-path="url(#a)"><path d="M13.333 8.333a3.333 3.333 0 0 1-6.666 0M2.586 5.028h14.828"/><path d="M2.833 4.556c-.216.289-.333.64-.333 1v11.111a1.667 1.667 0 0 0 1.667 1.667h11.666a1.666 1.666 0 0 0 1.667-1.667V5.557c0-.361-.117-.712-.333-1L15.5 2.333a1.67 1.67 0 0 0-1.333-.667H5.833a1.67 1.67 0 0 0-1.333.667z"/></g><defs><clipPath id="a"><path fill="#fff" d="M0 0h20v20H0z"/></clipPath></defs></svg>