<svg xmlns="http://www.w3.org/2000/svg" fill="none" viewBox="0 0 14 14"><path stroke="#fec328" stroke-linecap="round" stroke-linejoin="round" d="M3.522.793c-.254.187-.397.442-.397.707v11c0 .265.143.52.397.707.254.188.6.293.959.293h6.1c.36 0 .705-.105.96-.293.254-.187.396-.442.396-.707v-11c0-.265-.142-.52-.397-.707A1.63 1.63 0 0 0 10.582.5H4.48c-.36 0-.705.105-.959.293"/><path stroke="#fec328" stroke-linecap="round" stroke-linejoin="round" d="M5.932 2.434a.9.9 0 0 0-.159.52v8.092c0 .195.057.382.159.52a.48.48 0 0 0 .382.215h2.434a.48.48 0 0 0 .383-.215.9.9 0 0 0 .158-.52V2.954a.9.9 0 0 0-.158-.52.48.48 0 0 0-.383-.215H6.314a.48.48 0 0 0-.382.215M10.5 6v2m-6-2v2M10.5 7H9M6 7H4.5"/></svg>