<svg xmlns="http://www.w3.org/2000/svg" fill="none" viewBox="-4 -4 32 32"><g stroke="#fec328" stroke-linecap="round" stroke-linejoin="round" stroke-width="1.714" clip-path="url(#a)"><path d="M21.044 20.974V10.959H2.956v10.015c0 .946.767 1.714 1.714 1.714h14.66c.947 0 1.714-.768 1.714-1.714M12 22.688V10.955"/><path d="M22.523 8.215v1.03c0 .946-.768 1.714-1.715 1.714H3.194a1.714 1.714 0 0 1-1.714-1.715v-1.03c0-.946.767-1.714 1.714-1.714h17.615c.947 0 1.715.768 1.715 1.715M12.001 6.5c0-1.5-1.75-5-4.375-5-4.27 0-2.715 5-.67 5"/><path d="M12 6.5c0-1.5 1.75-5 4.375-5 4.27 0 2.715 5 .671 5"/></g><defs><clipPath id="a"><path fill="#fff" d="M0 0h24v24H0z"/></clipPath></defs></svg>