<svg xmlns="http://www.w3.org/2000/svg" fill="none" viewBox="0 0 17 22"><path stroke="#fec328" stroke-linecap="round" stroke-linejoin="round" stroke-width="2" d="M7.118 1.049c-.465-.2-.886.265-.687.598a11.3 11.3 0 0 1 1.374 3.945c.288 1.96.002 4.108-1.263 5.696a.53.53 0 0 1-.399.2.53.53 0 0 1-.42-.178c-.573-.592-1.165-1.192-1.552-1.928-.111-.222-.51-.576-1.086 0-1.392 1.146-2.239 2.905-2.061 4.698.072 3.972 3.583 6.873 7.43 6.92 3.926.048 7.387-2.859 7.419-6.92 0-2.562-.773-5.064-2.217-7.18a15.8 15.8 0 0 0-6.538-5.851"/></svg>