<svg xmlns="http://www.w3.org/2000/svg" fill="none" viewBox="-4 -4 24 24"><path fill="#a0a0a0" fill-rule="evenodd" d="M8 2.666c1.818 0 3.557.954 5.178 2.52a15.5 15.5 0 0 1 2.05 2.454l.23.36-.23.359a15.52 15.52 0 0 1-2.05 2.453c-1.62 1.567-3.36 2.52-5.178 2.52s-3.557-.953-5.178-2.52a15.5 15.5 0 0 1-2.05-2.453l-.23-.36.23-.359c.103-.161.292-.432.557-.777.44-.57.94-1.142 1.493-1.676C4.442 3.62 6.182 2.666 8 2.666m5.615 5.011a14 14 0 0 0-1.364-1.532C10.855 4.795 9.403 4 8 4s-2.855.797-4.25 2.146A14 14 0 0 0 2.143 8q.11.154.241.322c.403.523.862 1.046 1.364 1.532C5.145 11.203 6.597 12 8 12s2.855-.796 4.25-2.146A14 14 0 0 0 13.857 8q-.11-.152-.241-.322M5.333 8a2.667 2.667 0 1 0 5.334 0 2.667 2.667 0 0 0-5.334 0m4 0a1.333 1.333 0 1 1-2.666 0 1.333 1.333 0 0 1 2.666 0" clip-rule="evenodd"/><path stroke="#a0a0a0" stroke-linecap="round" stroke-width="2" d="m2.5 2.5 11 11"/></svg>