<svg xmlns="http://www.w3.org/2000/svg" fill="none" viewBox="-1 -1 24 24"><g stroke="#fec328" stroke-linecap="round" stroke-linejoin="round" stroke-width="1.571" clip-path="url(#a)"><path d="M10.998.867a10.133 10.133 0 0 0-8.434 15.745l-1.7 4.52 5.69-1.028A10.131 10.131 0 0 0 20.887 8.763 10.13 10.13 0 0 0 10.998.867"/><path d="M8.659 8.662A2.338 2.338 0 1 1 10.997 11v1.559M11 16.456a.39.39 0 0 1 0-.78M11.001 16.456a.39.39 0 1 0 0-.78"/></g><defs><clipPath id="a"><path fill="#fff" d="M0 0h22v22H0z"/></clipPath></defs></svg>