<svg xmlns="http://www.w3.org/2000/svg" fill="none" viewBox="0 0 24 24"><path fill="#fec328" d="M17.969 6.095c.015-.007 1.014-.449 1.031.296l-2.22 11.15c-.005.014-.322.765-1.153.401l-3.145-2.411-2.028 1.835c-.008.006-.162.12-.332.053-.008-.002-.162-.035-.332-.595-.191-.591-1.124-3.65-1.136-3.687L5.527 12.09c-.013-.005-.472-.18-.524-.542-.051-.362.526-.57.541-.577zm-1.38 2.272c.017-.262-.42 0-.42 0l-6.867 4.368a.26.26 0 0 0-.106.297l.822 2.691c.052.158.28.14.314-.035l.193-1.642c0-.07.035-.123.088-.157.664-.595 5.605-5.03 5.818-5.243.227-.244.157-.279.157-.279"/></svg>