<svg xmlns="http://www.w3.org/2000/svg" fill="none" viewBox="0 0 24 24"><path fill="#fec328" fill-rule="evenodd" d="M12.15 18.93c-1.373 0-2.012-.2-3.122-1.003-.702.903-2.925 1.608-3.022.401 0-.906-.2-1.671-.428-2.507-.27-1.03-.578-2.176-.578-3.838C5 8.015 8.256 5.03 12.114 5.03c3.86 0 6.886 3.133 6.886 6.99a6.886 6.886 0 0 1-6.85 6.91m.057-10.47c-1.879-.097-3.343 1.204-3.667 3.243-.267 1.688.207 3.744.612 3.85.194.047.682-.347.986-.651a3.5 3.5 0 0 0 1.698.605 3.577 3.577 0 0 0 3.74-3.333 3.577 3.577 0 0 0-3.369-3.71z" clip-rule="evenodd"/></svg>