<svg xmlns="http://www.w3.org/2000/svg" fill="none" viewBox="0 0 36 36"><path fill="#fec328" fill-rule="evenodd" d="M15.312 8.56c3.534-.94 7.41-.945 10.823.47 2.204.913 4.212 2.543 5.15 4.783.898 2.06.734 4.47-.19 6.492-1.232 2.691-3.503 4.79-6.057 6.22-3.09 1.715-6.665 2.57-10.198 2.389-2.461-.135-4.933-.802-6.992-2.185-1.888-1.261-3.34-3.266-3.65-5.546-.377-2.471.57-4.97 2.076-6.905 2.233-2.88 5.551-4.779 9.038-5.718m3.126 4.228c-2.463.338-4.874 1.267-6.827 2.823-1.331 1.086-2.586 2.522-2.775 4.297-.129 1.136.591 2.168 1.49 2.787 1.79 1.24 4.06 1.562 6.192 1.457 3.215-.207 6.442-1.428 8.756-3.712 1.019-1.04 1.934-2.379 1.896-3.895-.124-1.09-.837-2.04-1.776-2.585-2.063-1.257-4.602-1.465-6.956-1.172" clip-rule="evenodd"/></svg>