<svg xmlns="http://www.w3.org/2000/svg" fill="none" viewBox="0 0 36 36"><path fill="#fec328" d="M19.266 20.626H8.106a1.415 1.415 0 1 0 0 2.831h12.859s.666-.666-.05-1.748c-.733-1.083-1.65-1.083-1.65-1.083"/><path fill="#fec328" d="M18.7 8.717 11.77 20.71c-.382.683-.166 1.549.517 1.932s1.55.167 1.932-.516l6.929-11.992c.383-.683.166-1.549-.517-1.932a1.397 1.397 0 0 0-1.931.516M27.177 25.856l-7.112-12.342s-1.032.8-1.032 2.382.65 2.648.65 2.648l5.046 8.744c.383.683 1.249.916 1.932.516.666-.4.9-1.265.516-1.948"/><path fill="#fec328" d="M27.893 20.626h-3.947a1.415 1.415 0 1 0 0 2.831h3.947c.783 0 1.416-.633 1.416-1.415 0-.767-.633-1.416-1.416-1.416M18.783 11.316l-1.5-2.615a1.43 1.43 0 0 0-1.931-.516 1.43 1.43 0 0 0-.517 1.931l1.5 2.615a1.43 1.43 0 0 0 1.931.517c.667-.383.9-1.25.517-1.932M8.806 25.839l.9-1.549s.216-.433 1.066-.433c.899 0 1.765.75 1.832 1.033l-1.35 2.365a1.397 1.397 0 0 1-1.931.516c-.683-.383-.9-1.25-.517-1.932"/></svg>