<svg xmlns="http://www.w3.org/2000/svg" fill="none" viewBox="0 0 24 24"><path fill="#fec328" d="M12 6.581c.915 0 1.66.745 1.66 1.66s-.745 1.66-1.66 1.66-1.66-.745-1.66-1.66.745-1.66 1.66-1.66m0 5.67a4.014 4.014 0 0 0 4.01-4.01A4.014 4.014 0 0 0 12 4.231a4.015 4.015 0 0 0-4.01 4.01 4.014 4.014 0 0 0 4.01 4.01m1.622 3.27a7.5 7.5 0 0 0 2.329-.964 1.175 1.175 0 0 0-1.251-1.99 5.09 5.09 0 0 1-5.4 0 1.17 1.17 0 0 0-1.62.37 1.175 1.175 0 0 0 .369 1.62c.716.45 1.503.776 2.328.964l-2.242 2.242a1.175 1.175 0 0 0 1.662 1.662L12 17.222l2.204 2.203a1.173 1.173 0 1 0 1.66-1.661z"/></svg>