<svg xmlns="http://www.w3.org/2000/svg" fill="none" viewBox="-5 -5 24 24"><g stroke="#fec328" stroke-linecap="round" stroke-linejoin="round" clip-path="url(#a)"><path d="M6.053 1.21 7.21 3.54a.36.36 0 0 0 .296.215l2.571.39a.39.39 0 0 1 .216.673L8.395 6.622a.38.38 0 0 0 0 .35l.363 2.558a.39.39 0 0 1-.579.417L5.891 8.735a.46.46 0 0 0-.377 0L3.226 9.947a.39.39 0 0 1-.579-.417l.43-2.558a.38.38 0 0 0-.067-.35L1.113 4.805a.39.39 0 0 1 .215-.66l2.57-.377a.36.36 0 0 0 .297-.215l1.158-2.329a.39.39 0 0 1 .7-.013"/><path d="m5.499 10.931-.27 1.599a.39.39 0 0 0 .58.417l2.288-1.212a.46.46 0 0 1 .377 0l2.288 1.212a.39.39 0 0 0 .579-.417l-.364-2.558a.38.38 0 0 1 0-.35l1.898-1.804a.39.39 0 0 0-.215-.673l-1.607-.244"/></g><defs><clipPath id="a"><path fill="#fff" d="M0 0h14v14H0z"/></clipPath></defs></svg>