<svg xmlns="http://www.w3.org/2000/svg" fill="none" viewBox="-2 -2 24 24"><path fill="#fcdb00" d="M6.867 3.272C8.083 1.09 8.69 0 9.6 0c.91 0 1.517 1.09 2.733 3.272l.315.564c.345.62.518.93.787 1.135s.605.28 1.277.432l.61.138c2.362.535 3.542.802 3.823 1.705.28.902-.524 1.844-2.134 3.726l-.417.487c-.457.535-.686.803-.789 1.133-.102.331-.068.688.001 1.402l.064.65c.243 2.512.364 3.767-.37 4.325-.736.558-1.842.05-4.052-.969l-.573-.262c-.628-.29-.942-.434-1.275-.434s-.647.144-1.275.434L7.753 18c-2.21 1.018-3.317 1.527-4.051.97-.736-.559-.614-1.814-.372-4.326l.064-.65c.069-.714.103-1.07 0-1.401-.102-.331-.331-.599-.788-1.133l-.417-.488C.579 9.092-.225 8.15.055 7.247S1.517 6.075 3.879 5.54l.61-.138c.671-.152 1.006-.228 1.276-.432.27-.205.441-.515.787-1.135z"/></svg>