<svg xmlns="http://www.w3.org/2000/svg" fill="none" viewBox="-3.5 0 24 22"><g clip-path="url(#a)"><path fill="#fec328" d="M2 5.5a.75.75 0 0 0-.75.75v1.5c0 .416.334.75.75.75h1.5c.416 0 .75-.334.75-.75v-1.5a.75.75 0 0 0-.75-.75zm4.75.5a.999.999 0 1 0 0 2h9a.999.999 0 1 0 0-2zm0 5a.999.999 0 1 0 0 2h9a.999.999 0 1 0 0-2zm0 5a.999.999 0 1 0 0 2h9a.999.999 0 1 0 0-2zm-5.5-4.75v1.5c0 .416.334.75.75.75h1.5c.416 0 .75-.334.75-.75v-1.5a.75.75 0 0 0-.75-.75H2a.75.75 0 0 0-.75.75M2 15.5a.75.75 0 0 0-.75.75v1.5c0 .416.334.75.75.75h1.5c.416 0 .75-.334.75-.75v-1.5a.75.75 0 0 0-.75-.75z"/></g><defs><clipPath id="a"><path fill="#fff" d="M.75 4h16v16h-16z"/></clipPath></defs></svg>