<svg xmlns="http://www.w3.org/2000/svg" fill="none" viewBox="0 0 52 52"><path stroke="#000" stroke-linecap="round" stroke-linejoin="round" stroke-width="2" d="M36.667 27.333c0 6.667-4.667 10-10.214 11.934-.29.098-.606.093-.893-.014C20 37.333 15.333 34 15.333 27.333V18a1.333 1.333 0 0 1 1.334-1.333c2.666 0 6-1.6 8.32-3.627a1.56 1.56 0 0 1 2.026 0c2.334 2.04 5.654 3.627 8.32 3.627A1.334 1.334 0 0 1 36.667 18z"/><path stroke="#000" stroke-linecap="round" stroke-linejoin="round" stroke-width="2" d="m22 26 2.667 2.667L30 23.333"/></svg>