<svg xmlns="http://www.w3.org/2000/svg" fill="none" viewBox="0 0 52 52"><path stroke="#000" stroke-linecap="round" stroke-linejoin="round" stroke-width="2" d="M28.667 34V18A2.666 2.666 0 0 0 26 15.333H15.333A2.667 2.667 0 0 0 12.667 18v14.667A1.333 1.333 0 0 0 14 34h2.667M30 34h-8"/><path stroke="#000" stroke-linecap="round" stroke-linejoin="round" stroke-width="2" d="M35.333 34H38a1.334 1.334 0 0 0 1.333-1.333V27.8c0-.303-.104-.596-.293-.832l-4.64-5.8a1.33 1.33 0 0 0-1.04-.501h-4.693"/><path stroke="#000" stroke-linecap="round" stroke-linejoin="round" stroke-width="2" d="M32.667 36.667a2.667 2.667 0 1 0 0-5.334 2.667 2.667 0 0 0 0 5.334M19.333 36.667a2.667 2.667 0 1 0 0-5.334 2.667 2.667 0 0 0 0 5.334"/></svg>