<svg xmlns="http://www.w3.org/2000/svg" fill="none" viewBox="0 0 52 52"><path stroke="#000" stroke-linecap="round" stroke-linejoin="round" stroke-width="2" d="M15.133 21.493a5.333 5.333 0 0 1 6.374-6.36 5.334 5.334 0 0 1 8.986 0 5.334 5.334 0 0 1 6.374 6.374 5.332 5.332 0 0 1 0 8.986 5.334 5.334 0 0 1-6.36 6.374 5.334 5.334 0 0 1-9 0 5.334 5.334 0 0 1-6.374-6.36 5.335 5.335 0 0 1 0-9.014"/><path stroke="#000" stroke-linecap="round" stroke-linejoin="round" stroke-width="2" d="m22 26 2.667 2.667L30 23.333"/></svg>