<svg xmlns="http://www.w3.org/2000/svg" fill="none" viewBox="-2 -2 32 32"><rect width="26" height="26" x="1" y="1" stroke="#fec328" stroke-width="2" rx="13"/><rect width="18.2" height="18.2" x="4.9" y="4.9" stroke="#fec328" rx="9.1"/><path stroke="#fec328" d="M14 8.1c.064 0 .187.023.437.35s.535.833.948 1.575l.21.376c.209.374.377.697.66.911.285.217.638.287 1.042.378l.407.092c.805.182 1.35.307 1.722.454.272.107.38.198.428.273l.032.07c.028.092.032.238-.184.583-.221.35-.594.788-1.141 1.428l-.278.325c-.278.324-.517.59-.623.931-.106.34-.062.697-.02 1.131v.001l.042.433c.083.853.138 1.439.12 1.86-.02.42-.108.53-.172.577-.055.042-.165.096-.542-.012-.384-.11-.895-.344-1.647-.69l-.383-.176c-.377-.174-.7-.334-1.058-.334-.268 0-.518.09-.785.21l-.274.125-.381.175c-.753.346-1.264.58-1.649.69-.377.109-.486.054-.54.012-.065-.048-.154-.157-.172-.577-.01-.21 0-.463.021-.769l.098-1.091.042-.433c.042-.434.086-.793-.02-1.133-.08-.256-.235-.47-.424-.696l-.199-.233-.277-.326h-.001c-.547-.64-.92-1.078-1.14-1.428-.218-.345-.213-.492-.184-.583.026-.086.097-.201.46-.344.372-.147.918-.272 1.721-.453l.407-.093c.404-.091.757-.16 1.043-.377.212-.161.359-.383.507-.642l.152-.27.21-.375c.413-.742.697-1.248.948-1.575.25-.328.374-.35.437-.35Z"/></svg>