<svg xmlns="http://www.w3.org/2000/svg" fill="none" viewBox="0 0 72 70"><path fill="#000" d="M31.472 62.3c.16.16.356.538.433.835.102.374-.155.433-.864.195-.556-.187-1.222-.549-1.484-.8-.441-.425-.399-.463.575-.495.578-.021 1.18.1 1.34.265"/><path fill="#000" fill-rule="evenodd" d="M36.838 57.507c.147.136.117.706-.059 1.262-.182.557-.554 1.18-.832 1.383-.281.206-.85.294-1.27.2-.56-.125-.811-.377-.937-.935-.094-.42-.005-.99.2-1.271.204-.278.88-.591 1.501-.698s1.25-.078 1.397.059m-1.164 1.11a.59.59 0 0 0-.647-.29c-.249.062-.511.292-.583.514-.075.22.045.58.267.803.222.222.57.174.779-.11.208-.283.291-.698.184-.917" clip-rule="evenodd"/><path fill="#000" fill-rule="evenodd" d="M71.701 27.089c.142.141-8.177 8.824-20.224 21.101C33.112 66.91 30.865 69.113 29.584 69.63c-.784.318-1.787.46-2.229.313-.441-.147-1.439-.894-2.214-1.664-1.148-1.131-1.426-1.661-1.471-2.808-.043-1.022.197-1.67.877-2.349.516-.516 1.166-.888 1.447-.826.375.08 1.364-.85 3.66-3.43 2.083-2.345 4.207-4.378 6.288-6.015 2.83-2.226 3.172-2.595 3.432-3.657.248-1.04 1.292-2.19 8.508-9.412 7.433-7.439 8.482-8.38 10.913-9.817 1.48-.875 3.79-1.923 5.139-2.324 1.345-.404 3.587-.747 4.986-.765 1.392-.019 2.644.077 2.781.214m-27.63 22.655c-1.338-1.337-2.384-2.163-2.542-2.006-.147.147-.12.42.06.61.178.19-.003.249-.402.134-.69-.198-.73-.158-.824.824-.072.81-.47 1.359-1.853 2.56-.966.842-3.261 3.03-5.104 4.868-1.838 1.837-3.977 4.03-4.756 4.873-.93 1.011-1.757 1.597-2.423 1.723-.56.104-1.166.46-1.354.786-.187.327-.174 1.218.03 1.977.267.995.677 1.591 1.479 2.142.612.42 1.535.765 2.051.773.522.008 1.09-.141 1.268-.331.182-.187.049-.68-.291-1.094s-.762-.714-.936-.669c-.174.046-.618-.217-.987-.586-.367-.366-.594-.893-.5-1.169.093-.275.513-.695.936-.936.535-.305.97-.233 1.436.233q.627.627.313 1.254l-.091.167q-.314.627.313 1.254c.645.644.73.607 2.407-1.07 1.308-1.308 1.672-1.87 1.471-2.274-.144-.294-.147-.655 0-.802.148-.147.45-.086.67.133.325.327.847-.045 2.808-2.006l2.407-2.407c-.896-1.383-1.378-2.346-1.648-3.033-.273-.685-.31-1.305-.09-1.38.245-.08.604.45.917 1.356.283.818.765 1.663 1.07 1.872.438.305.829.107 1.89-.955 1.159-1.158 1.269-1.407.803-1.872-.294-.294-.885-.607-1.31-.696s-.91-.449-1.07-.802c-.198-.433-.035-.859.508-1.31.591-.49.982-.528 1.471-.134.423.337.57.831.401 1.337q-.267.803.402 1.203c.369.22.85.22 1.07 0 .221-.221.296-.596.168-.837-.187-.342-.09-.438.473-.462.388-.014.915-.241 1.17-.5.403-.415.173-.763-1.812-2.748m23.623-21.837c-1.195.12-3.084.517-4.188.883-1.108.364-2.943 1.177-4.077 1.808-1.674.925-3.496 2.538-9.581 8.474l-7.514 7.331c2.095 2.095 2.512 2.303 2.809 2.007.22-.22.521-.281.669-.134.147.147.085.45-.134.668q-.401.402.401 1.204l.803.803c2.792-2.793 3.263-3.542 3.407-4.483.107-.7.313-1.276.46-1.279s.204.535.126 1.196l-.139 1.198C63.564 34.707 67.871 30.23 68.582 29.33l1.292-1.64z" clip-rule="evenodd"/><path fill="#000" d="M6.013 40.575c.118.118.211.575.214 1.016 0 .439-.24 1.044-.535 1.338-.326.326-.832.366-1.303.099-.422-.241-.842-.66-.936-.936-.093-.276.083-.8.394-1.17.307-.365.874-.644 1.257-.614.382.029.791.15.91.267M13.446 33.832c-.518.952-1.302 2.094-1.743 2.536-.442.441-1.469 1.174-2.282 1.623-.816.452-1.474.64-1.46.412.01-.225.35-.5.748-.615.402-.112 1.386-.813 2.191-1.554.803-.744 1.918-1.977 2.474-2.742l1.017-1.39zM11.92 33.642c.047.048-.52.685-1.263 1.412-.744.728-1.445 1.23-1.555 1.12s.092-.572.447-1.024c.359-.449 1.017-.994 1.466-1.209.45-.213.856-.347.904-.3M18.726 28.156c.188.182.22.69.073 1.131-.19.57-.487.83-1.022.888-.415.051-.958-.192-1.204-.535-.286-.393-.235-.893.14-1.37.32-.41.831-.68 1.13-.596.303.083.701.3.883.482M24.967 23.553c.963-.878 1.723-1.38 1.69-1.118-.034.26-.733 1.064-1.551 1.792-.821.724-1.58 1.227-1.693 1.115-.11-.11.589-.915 1.554-1.79M41.46 4.337q.571-.225-.123.68c-.385.497-1.18 1.869-1.763 3.05-.89 1.806-1.955 3.09-6.673 8.039-3.09 3.24-5.623 5.761-5.631 5.603-.006-.159 1.649-1.99 3.678-4.079s4.493-4.798 5.475-6.026c.98-1.225 2.201-2.955 2.712-3.846.514-.888.84-1.707.728-1.814-.11-.109-.747.345-1.407 1.006-.66.66-1.383 1.265-1.605 1.337-.22.075-1.348 1.054-2.5 2.18-1.945 1.897-2.042 1.95-1.29.717.447-.73 1.295-1.69 1.88-2.132.586-.441 2.164-1.634 3.504-2.648 1.343-1.01 2.697-1.941 3.015-2.067M31.646 12.712c.134.133-.233.789-.819 1.455-.585.666-1.618 1.618-2.297 2.115-.677.5-1.14.76-1.027.578s1.035-1.244 2.051-2.362 1.955-1.922 2.092-1.787"/><path fill="#000" fill-rule="evenodd" d="M46.109.004c.35-.03.63.128.625.358-.005.225-1.144 2.407-2.53 4.847-1.388 2.436-3.555 5.807-4.817 7.487s-4.879 5.708-8.033 8.952c-3.156 3.242-5.828 5.807-5.938 5.697-.114-.104-4.48 4.08-19.192 18.791l-1.583.021c-1.279.016-1.808-.203-2.742-1.136-.684-.69-1.292-1.731-1.492-2.563-.185-.773-.131-1.741.12-2.153.25-.416 8.563-8.772 18.475-18.571 15.816-15.64 18.28-17.97 20.142-19.045C40.31 2.015 42.21 1.151 43.37.763s2.388-.73 2.739-.76m-25.732 26.09c-2.142-2.137-2.25-2.202-1.84-1.102l.433 1.171-1.514-1.428C3.334 38.857 1.44 40.912 1.538 41.316c.097.39.166.358.254-.12.094-.495.188-.519.377-.105.14.305.054.69-.184.859-.24.171-.227.821.027 1.444.385.942.674 1.204 1.669 1.536.663.219 1.385.219 1.605 0 .222-.222.254-.554.074-.744-.197-.208-.018-.291.458-.211.709.12 1.525-.605 8.35-7.415 6.613-6.59 7.5-7.58 7.033-7.813-.292-.147-.415-.388-.268-.535.148-.147.597-.174.995-.059.517.147.064-.454-1.551-2.06M45.376 1.416c.007-.078-.45-.054-1.014.056-.562.107-2.148.757-3.523 1.442-2.41 1.2-2.846 1.583-12.138 10.731l-9.637 9.488 4.28 4.28c1.596-1.1 2.548-1.892 3.145-2.472.596-.58 3.172-3.183 5.716-5.786 2.549-2.603 5.657-6.112 6.912-7.8 1.252-1.69 3.172-4.584 4.263-6.435s1.992-3.426 1.995-3.504" clip-rule="evenodd"/><path fill="#000" d="M17.83 52.382c.172.166.308.607.31.979-.002.372-.181.861-.398 1.083-.214.225-.329.757-.249 1.18s-.016.748-.21.724c-.196-.024-.416-.286-.49-.58s-.498-.894-.937-1.337c-.658-.658-.695-.937-.208-1.546.324-.41.88-.758 1.233-.773.353-.017.78.107.95.27M26.566 43.475c.776-.664.66-.404-.49 1.115-.82 1.088-2.04 2.522-2.7 3.183-.664.658-2.02 1.832-3.012 2.605-1.787 1.397-1.795 1.4-.891.18.519-.696 1.527-1.539 2.332-1.948.797-.406 1.755-1.204 2.188-1.824.578-.83.61-1.065.131-.939-.348.091-1.193.696-3.105 2.512l.653-1.22c.532-.992.888-1.284 1.917-1.56.696-.187 1.423-.545 1.616-.791s.805-.837 1.361-1.313M29.59 39.612c.456.142.839.514.994.968.14.412.024.913-.254 1.116-.279.208-.808.315-1.177.24-.37-.07-.803-.417-.966-.773-.16-.353-.077-.896.182-1.209.262-.31.81-.462 1.22-.342M42.43 29.381a185 185 0 0 0-1.615 2.664c-.388.666-.401.594-.061-.329.235-.647.963-1.846 1.615-2.664l1.182-1.493zM55.55 17.358c.062.061-.657.363-1.602.671-1.55.503-2.134.974-6.045 4.884-2.38 2.38-4.244 4.063-4.146 3.745.102-.32 1.34-1.891 2.756-3.493 1.594-1.803 3.25-3.352 4.349-4.077.979-.642 2.407-1.316 3.175-1.506.77-.187 1.45-.288 1.514-.224"/><path fill="#000" fill-rule="evenodd" d="M60.483 14.266c.13.132-1.758 2.394-4.202 5.026s-6.992 7.532-10.105 10.891-5.732 6.337-5.82 6.618c-.09.28-.51.556-.937.615-.592.084-3.244 2.575-21.278 20.61l-1.36.021q-1.358.021-2.714-1.03c-.942-.727-1.49-1.452-1.792-2.354-.238-.72-.252-1.728-.032-2.241.252-.59 6.42-6.956 16.584-17.119 13.48-13.481 16.597-16.458 18.667-17.844 1.364-.915 3.732-2.1 5.256-2.634 1.69-.589 3.697-.936 5.133-.885 1.3.048 2.469.195 2.6.326m-28.615 23.34c-1.693-1.666-1.92-1.808-1.396-.877.398.709.444 1.15.125 1.211-.258.053-.669-.179-.944-.525l-.105-.14c-.264-.334-.578-.5-.721-.367-.153.142-.279.562-.279.936 0 .535-.07.605-.331.337-.255-.264-1.956 1.293-7.61 6.957-5.381 5.398-7.296 7.49-7.35 8.03-.035.404.05 1.153.192 1.664.145.513.653 1.203 1.129 1.535s1.399.591 2.044.572c1.152-.029 1.342-.197 9.03-7.96l7.853-7.928c-1.244-1.035-1.509-1.423-1.394-1.527.116-.104.565-.131.995-.059.645.11.423-.225-1.238-1.859m27.024-22.792c-.121-.12-1.226-.08-2.45.09-1.228.17-2.943.563-3.812.87-.87.308-2.504 1.08-3.633 1.717-1.66.934-3.619 2.683-10.244 9.148l-8.188 7.995 4.547 4.547c2.563-2.808 2.921-3.022 3.413-2.744.506.286.771.113 1.697-1.107a52 52 0 0 1 2.105-2.576c.556-.62 4.558-4.863 8.896-9.426s7.788-8.393 7.669-8.514" clip-rule="evenodd"/></svg>