<svg xmlns="http://www.w3.org/2000/svg" fill="none" viewBox="0 0 72 70"><path fill="#000" d="M15.555 62.22c.327-.614.88-.913 1.52-.82.72.103 1.006.473 1.006 1.31 0 .749-.29 1.207-.82 1.287-.448.065-1.136-.09-1.52-.346-.547-.365-.589-.679-.186-1.432M24.822 11.146c.365-.127.838-.155 1.053-.061.215.093.13.496-.192.889-.323.397-.954.715-1.404.701-.448-.009-.907.244-1.02.566-.107.323.211.955.703 1.404.87.786.921.772 1.351-.468.248-.706.777-1.445 1.17-1.637.43-.21 1.001-.07 1.422.35.384.384.964.693 1.287.683s1.216.847 1.988 1.91c1.184 1.623 1.296 1.988.702 2.348-.389.234-1.123.421-1.638.412-.841-.014-.865.065-.234.758.627.692.604.846-.234 1.436-.514.36-1.253.645-1.637.631-.389-.013-1.703 1.245-2.924 2.798-1.689 2.147-2.222 3.219-2.222 4.463 0 1.142-.21 1.637-.702 1.637-.388 0-.912-.631-1.17-1.403-.425-1.282-.65-1.404-2.572-1.404-1.455 0-2.176.216-2.34.702-.13.384-.233 1.385-.229 2.222.005 1.371-.065 1.45-.734.82-.5-.473-.66-1.161-.491-2.106.145-.772.613-1.722 1.048-2.105.468-.417 1.665-.693 2.937-.683 1.802.018 2.242.206 2.723 1.17.571 1.136.58 1.136.585.097.005-.58.477-1.735 1.053-2.573.57-.837 1.68-2.208 2.456-3.05s1.833-1.53 2.348-1.534c.884-.005.889-.047.117-.692-.772-.65-.757-.73.234-1.395.58-.388 1.314-.701 1.637-.702.323.005.586-.154.59-.346 0-.192-.313-.824-.701-1.404-.389-.58-.918-.944-1.175-.818s-.73-.094-1.053-.487c-.322-.397-.692-.72-.818-.71-.132.01-.497.753-.82 1.66-.322.903-.794 1.642-1.052 1.642-.257 0-.987-.473-1.618-1.053-.637-.58-1.165-1.37-1.184-1.754-.014-.384.45-1.15 1.034-1.694.59-.547 1.366-1.094 1.726-1.22M38.142 11.253c.753 0 1.164.225 1.07.585-.088.323-.542.585-1.015.585s-.954-.262-1.066-.585c-.135-.374.234-.585 1.01-.585"/><path fill="#000" fill-rule="evenodd" d="M58.52 6.968c5.431-5.249 7.84-7.284 8.187-6.929.272.276.562 2.227.651 4.337.108 2.564-.103 4.842-.632 6.877-.435 1.67-1.324 4.094-1.974 5.38-.65 1.287-2.194 3.813-3.434 5.614-1.235 1.801-2.793 3.799-3.457 4.445-1.062 1.024-1.212 1.544-1.202 4.21.009 1.67-.403 4.515-.917 6.316-.51 1.801-1.619 4.645-2.456 6.316-.955 1.908-2.747 4.276-4.8 6.348-2.34 2.358-4.211 3.748-6.55 4.856-1.802.856-4.641 1.839-6.316 2.185s-3.883.627-4.912.627c-1.722-.005-2.148.281-5.263 3.514-2.676 2.778-3.392 3.817-3.392 4.926q0 1.403-1.404 2.807c-1.104 1.104-1.675 1.347-2.69 1.132-.706-.15-2.026-.81-2.924-1.474s-2.428-1.96-3.4-2.886c-.97-.926-1.755-1.895-1.75-2.152s1.694-2.523 3.752-5.03c2.053-2.507 3.724-4.72 3.705-4.912s-1.324-1.296-2.905-2.456c-1.928-1.413-3.692-3.298-5.348-5.731-1.455-2.129-2.877-4.931-3.448-6.784-.636-2.053-.992-4.547-1.024-7.134-.028-2.19.229-5.137.566-6.55s1.314-3.944 2.18-5.614c.86-1.67 2.592-4.2 3.845-5.614 1.25-1.413 3.416-3.363 4.805-4.336 1.394-.969 4.005-2.302 5.806-2.957 2.1-.772 4.702-1.292 7.251-1.455 2.868-.187 4.824-.047 7.018.51 1.675.421 4.304 1.38 5.848 2.129 1.544.748 4.173 2.61 8.889 6.919zM25.444 45.873c-.837 1.029-1.309 1.87-1.052 1.871s.716-.472 1.015-1.053c.313-.608.613-.804.702-.467.084.323-.964 1.904-2.334 3.508-1.371 1.61-3.369 4.136-4.445 5.614-1.352 1.862-2.39 2.798-3.368 3.041-.781.197-1.413.51-1.404.702.005.197.22.35.477.351.257 0 .463.267.459.585-.005.341-.496.538-1.17.468-.809-.08-1.319.206-1.68.935-.42.856-.378 1.123.235 1.404.411.196.65.561.519.819-.145.294-.5.252-.945-.118-.393-.317-.865-.425-1.053-.229-.187.197.59 1.142 1.722 2.105 1.136.964 2.61 2.12 3.275 2.569.669.449 1.632.823 2.147.837.856.02.837-.06-.234-.968l-1.17-.987c2.793.426 3.51.341 3.51.065 0-.257-.234-.94-.52-1.52-.318-.632-.365-1.362-.117-1.83.22-.43 2.719-3.368 5.548-6.535s5.567-6.222 6.082-6.788c.636-.702.786-1.193.468-1.544-.257-.28-.73-.505-1.052-.5-.324.004-1.376-.941-2.34-2.101l-1.754-2.105zm5.414 7.027c-.086.002-1.466 1.475-3.074 3.275-1.608 1.795-2.87 3.37-2.807 3.504.065.13 1.17-.974 2.46-2.457 1.287-1.478 2.62-3.06 2.957-3.508.337-.454.548-.819.464-.814m-8.492-2.962c-.09-.078-.894.707-1.792 1.755-.898 1.043-2.245 2.699-2.998 3.677-.753.977-1.263 1.772-1.137 1.768.13 0 1.548-1.59 3.157-3.527 1.61-1.942 2.854-3.593 2.77-3.672m29.895-16.921c-1.525 1.796-3.42 3.696-4.21 4.215-.787.52-1.643 1.418-1.9 1.988-.258.576-.735 1.043-1.053 1.043-.323 0-1.165.745-1.871 1.652L41.94 43.57c2.466 2.447 2.508 2.615 1.862 3.593-.379.575-1.01 1.053-1.394 1.053-.389 0-1.282-.445-1.988-.987-.913-.693-1.666-.898-2.573-.702-.913.201-1.792 1.071-3.004 2.975-.945 1.478-2.47 3.617-3.392 4.749l-1.675 2.058c3.986-.42 5.385-.823 5.68-1.16.295-.342.66-1.095.819-1.67.22-.819.051-1.123-.767-1.366l-1.053-.309c1.81-.5 3.813-.805 5.614-1.001 1.8-.197 4.327-.828 5.614-1.404 1.286-.58 2.704-1.501 3.158-2.053.449-.552.71-1.212.584-1.47-.13-.258.286-1.788.927-3.391.641-1.61 1.165-3.823 1.17-4.913.004-1.094.163-1.996.36-2.011.191-.01.613.304.935.702.468.58.454 1.16-.074 2.947-.365 1.22-1.016 3.064-1.446 4.093-.435 1.03-.575 1.66-.313 1.404.261-.258 1.001-1.52 1.642-2.807.64-1.287 1.51-3.71 1.937-5.38.425-1.675.706-3.883.622-4.908l-.146-1.862zm-6.138 17.066c-.244-.004-.917.314-1.497.702s-1.147.65-1.264.59c-.114-.066-1.498.093-3.078.35-2.605.421-2.929.604-3.532 1.989-.608 1.389-.594 1.515.154 1.516.45-.005 1.872-.53 3.158-1.17 1.287-.641 3.079-1.605 3.977-2.143.903-.538 1.838-1.174 2.082-1.408.28-.267.28-.426 0-.426M14.137 12.657c-.24 0-1.306 1.001-2.372 2.222-1.071 1.22-2.634 3.588-3.476 5.263-.865 1.73-1.787 4.552-2.129 6.55-.341 2.02-.472 4.748-.304 6.432.16 1.61.927 4.557 1.708 6.55s2.306 4.758 3.392 6.148c1.085 1.384 3.13 3.344 4.547 4.35q2.578 1.839 2.727 1.221c.06-.235-.087-.652-.348-1.058.24.107.428.102.428-.018 0-.067-.161-.353-.416-.752.658.894 1.13 1.465 1.235 1.468.191.01 1.034-.833 1.871-1.871 1.488-1.843 1.502-1.904.678-2.938a16 16 0 0 1-1.436-2.222c-.327-.642-.528-1.694-.444-2.34.08-.64.468-1.445.851-1.782.393-.346.496-.697.234-.8-.257-.103-1.048-.618-1.754-1.142-.707-.524-1.287-1.268-1.287-1.656 0-.383-.683-1.17-1.52-1.75a30 30 0 0 0-3.088-1.81c-1.45-.71-1.586-.711-1.768-.005-.108.417-.08 1.497.056 2.396.14.903.355 2.166.482 2.807.164.856.631 1.268 1.745 1.53.837.191 1.992.35 2.573.35.58-.004 1.211.234 1.403.534.253.388-.323.486-2.096.35-1.346-.107-2.45-.032-2.456.16-.004.196-.01.669-.01 1.052 0 .389 1.264 2.597 2.808 4.913l.349.517a44 44 0 0 0-.915-1.22c-.21-.256-.384-.308-.379-.116.004.167.405.947.935 1.826a74 74 0 0 1-1.478-2.177c-1.174-1.801-2.269-3.748-2.428-4.328-.164-.58-.557-1.062-.88-1.075-.323-.01-1.216-.328-1.988-.707l-1.403-.683 3.275.379c0-8.865-.155-10.194-.585-10.194-.323 0-.697-.473-.828-1.053s-.16-2.316-.06-3.86c.102-1.543.354-3.227.56-3.742s1.291-2.307 2.414-3.977c1.123-1.675 2.035-3.2 2.021-3.392-.009-.191-.21-.35-.444-.35m17.376 23.157c-.842-.734-1.063-.785-1.044-.234.019.389.337 1.072.72 1.52.618.74.548 1.011-.715 2.69-.772 1.03-1.408 2.031-1.413 2.223-.005.197.73 1.039 1.637 1.872.908.837 1.647 1.73 1.647 1.988 0 .257-.21.575-.468.702-.257.13-.472.393-.481.584-.005.197.519.618 1.17.936 1.052.524 1.154.496.93-.234-.164-.52.136-1.094.819-1.572.589-.416 1.965-.888 3.06-1.052 1.576-.239 2.254-.103 3.274.65.706.524 1.455.786 1.666.585s-.95-1.643-2.573-3.21c-1.624-1.562-3.898-3.672-5.058-4.683-1.155-1.005-2.587-2.255-3.171-2.765m-7.355 1.198a6.5 6.5 0 0 0-1.146.285c-.416.146-.641.763-.585 1.6.06.861-.164 1.45-.608 1.596-.444.15-.702.833-.702 1.871s.388 2.073 1.053 2.826l1.052 1.184c4.716-5.464 6.143-7.21 6.213-7.402s-.982-.72-2.339-1.178c-1.357-.454-2.68-.805-2.938-.782M66.07 2.73c-.309-.687-.706-.486-2.736 1.404-2.078 1.936-2.41 2.493-2.658 4.547-.159 1.287-1.104 4.023-2.1 6.082-1.268 2.61-3.205 5.343-6.424 9.053-2.53 2.919-5.39 6.287-6.344 7.485-.609.76-1.257 1.468-1.732 1.911.459-.45 1.076-1.178 1.644-1.958.889-1.221 1.525-2.222 1.412-2.222s-1.118 1.09-2.23 2.418c-1.04 1.24-1.663 2.191-1.472 2.23-.23.004.438-1.006 1.546-2.332a553 553 0 0 1 5.553-6.513c1.895-2.194 4.482-5.572 5.745-7.5 1.268-1.931 2.732-4.879 3.26-6.549.524-1.674.885-3.222.8-3.443-.084-.219-3.312 2.84-7.171 6.807-3.86 3.963-9.175 9.778-11.813 12.917s-4.583 5.706-4.328 5.707c.258 0 1.783-1.52 3.392-3.373a242 242 0 0 1 5.582-6.198c1.46-1.553 2.778-2.667 2.924-2.475s-2.022 2.928-4.82 6.082c-2.792 3.152-5.528 6.151-6.076 6.666-.627.585-1.264.805-1.703.585s-.964-.042-1.394.468c-.38.449-.702 1.029-.716 1.286s1.455 1.89 3.265 3.626c1.805 1.735 3.39 3.156 3.523 3.158.126 0 .758-.74 1.404-1.637.916-1.287 1.066-1.84.701-2.574-.257-.514-.393-1.305-.299-1.754.117-.575.328-.365.702.702.29.837.636 1.52.767 1.52.126 0 2.891-2.685 6.142-5.965 3.247-3.28 7.168-7.649 8.702-9.707 1.54-2.059 3.505-5.216 4.365-7.018.861-1.8 1.886-4.645 2.279-6.315.397-1.675.706-3.78.692-4.679-.014-.903-.187-1.997-.384-2.442m-31.62 3.612c-6.218-.131-8.978.117-10.293.482-1.287.36-3.5 1.249-4.912 1.97-1.76.902-2.582 1.609-2.606 2.24-.019.506-.814 2.185-1.768 3.729-.95 1.544-2.199 3.4-2.774 4.13q-1.044 1.32-.97 3.042c.038.945.46 3.457.937 5.586l.865 3.869c3.883 2.203 5.207 3.373 5.614 4.191.383.772 1.123 1.614 1.637 1.872.515.257 1.198.458 1.52.449.324-.01.057-.3-.584-.646-.646-.346-1.59-1.6-2.105-2.793s-1.198-2.166-1.52-2.166c-.323.005-.515-.252-.431-.575s.557-.65 1.052-.725c.67-.108 1.11.365 1.746 1.871.463 1.104 1.02 2.325 1.23 2.713.215.384.782.627 1.263.543.478-.089 1.502-.206 2.274-.257s2.086.178 2.924.51c.837.337 1.679.617 1.871.627.192.014.089-.304-.234-.702-.468-.575-.468-.866 0-1.446.323-.397 1.006-.715 1.52-.706.515.005 1.198.28 1.521.604q.585.584.992.126c.225-.258 2.686-3.205 5.474-6.55 3.363-4.047 5.183-6.63 5.417-7.72.21-.963.173-1.684-.093-1.754-.244-.065-.445-.435-.445-.818 0-.389-.421-.81-.936-.936-.514-.131-1.043-.655-1.17-1.17-.13-.514-.023-1.253.235-1.637.257-.388.678-.599.935-.468.258.127.46.075.455-.117-.01-.192-.333-.772-.721-1.286-.416-.557-.59-1.409-.43-2.106.228-1 .009-1.3-1.507-2.049-.978-.482-2.353-1.057-3.06-1.286-.706-.225-1.281-.248-1.272-.056.01.191.327.772.71 1.286.38.515.688 1.198.684 1.52 0 .323-.426 1.007-.94 1.521-.515.515-1.147 1.46-1.404 2.105-.257.641-.786 1.17-1.17 1.17-.388 0-1.123-.683-1.637-1.52-.514-.838-.936-1.783-.936-2.106s-.528-1.113-1.17-1.754c-.967-.968-1.07-1.296-.584-1.895.323-.397 1.006-.706 1.52-.683.861.033.87.08.136.604-.744.533-.734.631.131 1.506.51.515.987 1.25 1.057 1.637.075.384.281 1.175.46 1.755.177.58.532 1.052.79 1.052.257 0 .472-.262.477-.584.005-.323.477-1.072 1.053-1.666l1.043-1.08zm9.239 3.963c-.323.01-.594.383-.598.832-.01.45.425 1.24.968 1.755.856.809.954.823.72.117-.15-.45-.06-.819.197-.82.257 0 .678.422.935.936q.468.936 0 2.106c-.257.64-.73 1.16-1.052 1.146-.45-.014-.459.126-.042.585.299.337.612 1.211.701 1.95l.16 1.348 4.21-4.954c-4.35-3.888-5.876-5.01-6.199-5.001" clip-rule="evenodd"/></svg>