<svg xmlns="http://www.w3.org/2000/svg" fill="none" viewBox="0 0 20 20"><g clip-path="url(#a)"><path stroke="#fec328" stroke-linecap="round" stroke-linejoin="round" d="M7.497 18.545a4.55 4.55 0 0 1-5.702-.627l-.642-.627a1.54 1.54 0 0 1 0-2.153l2.723-2.694a1.525 1.525 0 0 1 2.138 0 1.54 1.54 0 0 0 2.153 0l4.277-4.277a1.513 1.513 0 0 0 0-2.153 1.525 1.525 0 0 1 0-2.138l2.708-2.709a1.54 1.54 0 0 1 2.153 0l.627.642a4.55 4.55 0 0 1 .628 5.702A41.3 41.3 0 0 1 7.496 18.545"/></g><defs><clipPath id="a"><path fill="#fff" d="M0 0h20v20H0z"/></clipPath></defs></svg>