<svg xmlns="http://www.w3.org/2000/svg" fill="none" viewBox="0 0 32 32"><g clip-path="url(#a)"><path stroke="#fec328" stroke-linecap="round" stroke-linejoin="round" stroke-width="2.286" d="M11.995 29.673a7.28 7.28 0 0 1-9.124-1.004l-1.026-1.004a2.463 2.463 0 0 1 0-3.444l4.356-4.31a2.44 2.44 0 0 1 3.422 0 2.463 2.463 0 0 0 3.444 0l6.843-6.844a2.42 2.42 0 0 0 0-3.444 2.44 2.44 0 0 1 0-3.421l4.334-4.334a2.464 2.464 0 0 1 3.444 0l1.004 1.026a7.28 7.28 0 0 1 1.003 9.124 66 66 0 0 1-17.7 17.655"/></g><defs><clipPath id="a"><path fill="#fff" d="M0 0h32v32H0z"/></clipPath></defs></svg>