<svg xmlns="http://www.w3.org/2000/svg" fill="none" viewBox="0 0 16 21"><path fill="#fec328" stroke="#fcdb00" stroke-linecap="round" stroke-linejoin="round" d="M6.618.548c-.465-.2-.886.266-.687.599a11.3 11.3 0 0 1 1.374 3.945c.288 1.96.002 4.108-1.263 5.696a.53.53 0 0 1-.399.199.53.53 0 0 1-.421-.177c-.572-.592-1.164-1.192-1.551-1.928-.111-.222-.51-.577-1.086 0C1.193 10.027.346 11.787.523 13.58c.073 3.972 3.584 6.872 7.431 6.92 3.926.048 7.387-2.86 7.419-6.92 0-2.562-.773-5.064-2.217-7.18A15.8 15.8 0 0 0 6.618.547"/></svg>