<svg xmlns="http://www.w3.org/2000/svg" fill="none" viewBox="-5 -5 24 24"><g stroke="#fec328" stroke-linecap="round" stroke-linejoin="round" clip-path="url(#a)"><path d="M12.276 12.235V6.393H1.724v5.842a1 1 0 0 0 1 1h8.552a1 1 0 0 0 1-1M7 13.234V6.391M13.138 4.792v.6a1 1 0 0 1-1 1H1.862a1 1 0 0 1-1-1v-.6a1 1 0 0 1 1-1h10.276a1 1 0 0 1 1 1M7 3.792C7 2.917 5.98.875 4.448.875c-2.491 0-1.584 2.917-.391 2.917M7 3.792C7 2.917 8.02.875 9.552.875c2.491 0 1.584 2.917.391 2.917"/></g><defs><clipPath id="a"><path fill="#fff" d="M0 0h14v14H0z"/></clipPath></defs></svg>