<svg xmlns="http://www.w3.org/2000/svg" fill="none" viewBox="0 0 21 21"><path stroke="#fec328" stroke-linecap="round" stroke-linejoin="round" d="M8.632 1.164a2.96 2.96 0 0 1 3.736 0l.52.423.662-.106a2.96 2.96 0 0 1 3.236 1.868l.239.626.626.239a2.96 2.96 0 0 1 1.868 3.236l-.106.662.423.52a2.96 2.96 0 0 1 0 3.736l-.423.52.106.662a2.96 2.96 0 0 1-1.868 3.236l-.626.239-.239.626a2.96 2.96 0 0 1-3.236 1.868l-.662-.106-.52.423a2.96 2.96 0 0 1-3.736 0l-.52-.423-.662.106a2.96 2.96 0 0 1-3.236-1.868l-.239-.626-.626-.239A2.96 2.96 0 0 1 1.48 13.55l.106-.662-.423-.52a2.96 2.96 0 0 1 0-3.736l.423-.52-.106-.662a2.96 2.96 0 0 1 1.868-3.236l.626-.239.239-.626A2.96 2.96 0 0 1 7.45 1.48l.662.106z"/><path stroke="#fec328" stroke-linecap="round" stroke-linejoin="round" d="M10.436 14.5a4 4 0 1 0 0-8 4 4 0 0 0 0 8"/></svg>