<svg xmlns="http://www.w3.org/2000/svg" fill="none" viewBox="0 0 21 18"><path stroke="#fec328" stroke-linecap="round" stroke-linejoin="round" d="M16.098.516H4.902a1.65 1.65 0 0 0-1.307.707L.797 5.1a1.616 1.616 0 0 0 .092 1.985l8.396 9.677a1.535 1.535 0 0 0 2.43 0l8.396-9.677a1.616 1.616 0 0 0 .092-1.985l-2.798-3.877a1.65 1.65 0 0 0-1.308-.707"/><path stroke="#fec328" stroke-linecap="round" stroke-linejoin="round" d="M9.7.5 5.946 6.315l4.554 11M11.346.5l3.739 5.815-4.585 11M.53 6.316h19.94"/></svg>