<svg xmlns="http://www.w3.org/2000/svg" fill="none" viewBox="0 0 20 22"><path fill="#fec328" fill-rule="evenodd" d="M7.288.91C7.967.33 8.952 0 10 0s2.033.33 2.712.91h.9c.997 0 1.805.813 1.805 1.817h.903c.997 0 1.806.814 1.806 1.818v13.637A1.81 1.81 0 0 1 16.32 20H3.68a1.81 1.81 0 0 1-1.806-1.818V4.545c0-1.004.808-1.818 1.806-1.818h.903C4.583 1.723 5.39.91 6.388.91zm6.323 4.545c.669 0 1.252-.366 1.564-.91h1.145v13.637H3.68V4.545h1.144c.312.544.896.91 1.564.91zm-.638 2.993-3.876 3.903-2.07-2.085-1.277 1.286 3.347 3.37 5.153-5.188zm-4.907-5.72.27-.314c.296-.344.932-.596 1.664-.596s1.367.252 1.664.596l.27.313h1.677v.91H6.388v-.91h1.678" clip-rule="evenodd"/></svg>