<svg xmlns="http://www.w3.org/2000/svg" fill="none" viewBox="0 0 32 32"><path stroke="#fec328" stroke-linecap="round" stroke-linejoin="round" stroke-width="2.286" d="M9.366 8.344a2.63 2.63 0 1 0 5.259 0 2.63 2.63 0 0 0-5.259 0"/><path stroke="#fec328" stroke-linecap="round" stroke-linejoin="round" stroke-width="2.286" d="M8 13.577a5.1 5.1 0 0 1 1.705-1.907c.7-.456 1.49-.695 2.293-.695s1.593.239 2.293.695a5.1 5.1 0 0 1 1.705 1.907"/><path stroke="#fec328" stroke-linecap="round" stroke-linejoin="round" stroke-width="2.286" d="M28.571 28.571a2.286 2.286 0 0 1-2.285 2.286H5.714A2.286 2.286 0 0 1 3.43 28.57V3.428a2.286 2.286 0 0 1 2.285-2.285h14.857l8 8z"/><path stroke="#fec328" stroke-linecap="round" stroke-width="2.286" d="M8 19.429h16M8 25.143h9.143"/></svg>