<svg xmlns="http://www.w3.org/2000/svg" fill="none" viewBox="0 0 32 32"><g stroke="#fec328" stroke-linecap="round" stroke-linejoin="round" stroke-width="2.286" clip-path="url(#a)"><path d="M20.571 17.143c5.68 0 10.286-2.047 10.286-4.572S26.252 8 20.57 8s-10.285 2.047-10.285 4.571c0 2.525 4.605 4.572 10.285 4.572"/><path d="M10.286 12.571v13.715c0 2.514 4.57 4.571 10.285 4.571s10.286-2.057 10.286-4.571V12.57"/><path d="M30.857 19.429c0 2.514-4.571 4.571-10.286 4.571s-10.285-2.057-10.285-4.571M20.343 3.448a15.47 15.47 0 0 0-8.914-2.285c-5.692 0-10.286 2.057-10.286 4.571 0 1.349 1.326 2.56 3.428 3.429"/><path d="M4.571 22.877c-2.103-.868-3.428-2.08-3.428-3.428V5.734"/><path d="M4.571 16.02c-2.103-.87-3.428-2.08-3.428-3.43"/></g><defs><clipPath id="a"><path fill="#fff" d="M0 0h32v32H0z"/></clipPath></defs></svg>