<svg xmlns="http://www.w3.org/2000/svg" fill="none" viewBox="0 0 36 36"><path fill="#fec328" d="M20.476 21.678a1.91 1.91 0 0 1-1.45-1.85V9.526c0-.993.938-1.721 1.907-1.48l6.13 1.532c.852.213 1.45.975 1.45 1.85V21.73c0 .993-.939 1.721-1.907 1.48zM8.937 26.422a1.91 1.91 0 0 1-1.45-1.85V14.27c0-.993.939-1.721 1.907-1.48l6.13 1.532a1.91 1.91 0 0 1 1.45 1.85v10.301c0 .994-.938 1.722-1.906 1.48z"/><path fill="#fec328" d="M14.707 24.05a1.91 1.91 0 0 1-1.45-1.85V11.9c0-.994.938-1.722 1.906-1.48l6.13 1.531c.853.213 1.45.976 1.45 1.85v10.302c0 .993-.938 1.721-1.906 1.48z"/><path fill="#858585" d="M18.719 25.055a.62.62 0 0 1-.469-.582l-.267-7.868c-.077-1.041-.85-1.87-1.657-2.113a.11.11 0 0 0-.121.044.09.09 0 0 0 .021.124c.2.154.749.658.749 1.527l-.002 8.426zM24.49 22.681a.62.62 0 0 1-.47-.58l-.266-7.867c-.077-1.041-.85-1.87-1.658-2.113a.11.11 0 0 0-.12.043.09.09 0 0 0 .02.125c.2.154.75.658.75 1.527l-.002 8.428z"/></svg>