<svg xmlns="http://www.w3.org/2000/svg" fill="none" viewBox="0 0 24 24"><path fill="#fec328" fill-rule="evenodd" d="M18.679 8.406c.097-.325 0-.563-.463-.563h-1.532c-.39 0-.569.206-.666.433 0 0-.78 1.898-1.883 3.132-.357.357-.519.47-.714.47-.097 0-.238-.113-.238-.438V8.406c0-.39-.113-.563-.437-.563h-2.407c-.244 0-.39.18-.39.352 0 .369.552.454.608 1.493v2.255c0 .495-.089.584-.284.584-.519 0-1.782-1.907-2.53-4.089-.148-.424-.295-.595-.686-.595H5.525c-.437 0-.525.206-.525.433 0 .406.52 2.418 2.418 5.079 1.266 1.817 3.048 2.802 4.671 2.802.974 0 1.094-.219 1.094-.595v-1.374c0-.438.092-.525.4-.525.228 0 .617.114 1.526.99 1.039 1.038 1.21 1.504 1.794 1.504h1.531c.438 0 .657-.219.53-.65-.137-.43-.633-1.055-1.291-1.795-.357-.422-.893-.876-1.055-1.104-.227-.292-.162-.421 0-.681 0 0 1.866-2.629 2.06-3.521" clip-rule="evenodd"/></svg>